<?xml version="1.0" encoding="utf-8"?>
<!-- Generator: Adobe Illustrator 25.0.1, SVG Export Plug-In . SVG Version: 6.00 Build 0)  -->
<svg version="1.1" id="Layer_1" xmlns="http://www.w3.org/2000/svg" xmlns:xlink="http://www.w3.org/1999/xlink" x="0px" y="0px"
	 viewBox="0 0 668 768" style="enable-background:new 0 0 668 768;" xml:space="preserve">
<style type="text/css">
	.st0{display:none;fill:none;stroke:#156C6A;stroke-width:27;stroke-linecap:round;stroke-miterlimit:10;}
	.st1{fill:none;stroke:#156C6A;stroke-width:27;stroke-linecap:round;stroke-miterlimit:10;}
</style>
<path class="st0" d="M245.9,345.43"/>
<line class="st1" x1="422.11" y1="345.43" x2="129.61" y2="637.93"/>
<path class="st1" d="M245.9,345.43c-48.66-48.66-48.66-127.55,0-176.21s127.55-48.66,176.21,0s48.66,127.55,0,176.21"/>
<path class="st1" d="M289.18,302.15c-24.76-24.76-24.76-64.89,0-89.65c24.76-24.76,64.89-24.76,89.65,0s24.76,64.89,0,89.65"/>
<path class="st1" d="M129.64,637.96c-24.76,24.76-65.3,25.84-90.05,1.09c-24.76-24.76-24.76-64.89,0-89.65s64.89-24.76,89.65,0"/>
<line class="st1" x1="245.9" y1="345.43" x2="538.4" y2="637.93"/>
<path class="st1" d="M538.38,637.96c24.76,24.76,65.3,25.84,90.05,1.09c24.76-24.76,24.76-64.89,0-89.65s-64.89-24.76-89.65,0"/>
<line class="st1" x1="378.79" y1="302.11" x2="198.82" y2="482.08"/>
<path class="st1" d="M198.85,482.1c-24.76,24.76-65.3,25.84-90.05,1.09s-24.76-64.89,0-89.65s64.89-24.76,89.65,0"/>
<line class="st1" x1="289.28" y1="302.11" x2="469.25" y2="482.08"/>
<path class="st1" d="M469.22,482.1c24.76,24.76,65.3,25.84,90.05,1.09c24.76-24.76,24.76-64.89,0-89.65
	c-24.76-24.76-64.89-24.76-89.65,0"/>
<line class="st1" x1="365.4" y1="464.82" x2="365.4" y2="687.43"/>
<path class="st1" d="M365.37,687.43c0,35.01,27.9,64.45,62.91,64.45s63.39-28.38,63.39-63.39s-28.38-63.39-63.39-63.39"/>
<line class="st1" x1="303.21" y1="464.82" x2="303.21" y2="687.43"/>
<path class="st1" d="M422.17,529.42"/>
<path class="st1" d="M422.17,529.42c48.66,48.66,48.66,127.55,0,176.21s-127.55,48.66-176.21,0s-48.66-127.55,0-176.21"/>
<path class="st1" d="M378.89,572.7c24.76,24.76,24.76,64.89,0,89.65c-24.76,24.76-64.89,24.76-89.65,0s-24.76-64.89,0-89.65"/>
<polyline class="st1" points="422.17,529.42 129.67,236.92 340.16,26.43 538.46,236.92 245.96,529.42 "/>
<line class="st1" x1="289.28" y1="572.75" x2="469.25" y2="392.77"/>
<path class="st1" d="M469.22,392.75c24.76-24.76,65.3-25.84,90.05-1.09c24.76,24.76,24.76,64.89,0,89.65
	c-24.76,24.76-64.89,24.76-89.65,0"/>
<line class="st1" x1="378.79" y1="572.75" x2="198.82" y2="392.77"/>
<path class="st1" d="M198.85,392.75c-24.76-24.76-65.3-25.84-90.05-1.09c-24.76,24.76-24.76,64.89,0,89.65s64.89,24.76,89.65,0"/>
<line class="st1" x1="302.67" y1="410.03" x2="302.67" y2="187.43"/>
<line class="st1" x1="364.86" y1="410.03" x2="364.86" y2="187.43"/>
<path class="st1" d="M303.25,687.43c0,35.01-27.9,64.45-62.91,64.45s-63.39-28.38-63.39-63.39s28.38-63.39,63.39-63.39"/>
<path class="st0" d="M196.5,246.5"/>
</svg>
